nColumns=19
nRows=39
DataType=double
version=3
OpenSimVersion=4.1
endheader
time	ground_force_1_vx	ground_force_1_vy	ground_force_1_vz	ground_force_1_px	ground_force_1_py	ground_force_1_pz	ground_force_1_mx	ground_force_1_my	ground_force_1_mz	ground_force_2_vx	ground_force_2_vy	ground_force_2_vz	ground_force_2_px	ground_force_2_py	ground_force_2_pz	ground_force_2_mx	ground_force_2_my	ground_force_2_mz
0.083333	-4.80687	12.7191	-1.04887	0.850528	0	-0.142483	0	-1.50302	0	0	0	0	-0.000509597	0	-0.000115832	0	0	0
0.091667	-13.5248	29.6095	-4.4892	0.839177	0	-0.251465	0	-0.13326	0	0	0	0	-0.000509597	0	-0.000115832	0	0	0
0.1	-33.5791	84.7638	-9.72973	0.86842	0	-0.298987	-0	0.696932	-0	0	0	0	-0.000509597	0	-0.000115832	0	0	0
0.108333	-69.9166	217.948	-15.4402	0.885886	0	-0.315725	-0	0.73807	-0	0	0	0	-0.000509597	0	-0.000115832	0	0	0
0.116667	-115.341	458.605	-17.9794	0.890256	0	-0.321558	0	-0.068085	0	0	0	0	-0.000509597	0	-0.000115832	0	0	0
0.125	-151.972	766.197	-13.8388	0.885206	0	-0.322961	0	-1.5544	0	0	0	0	-0.000509597	0	-0.000115832	0	0	0
0.133333	-170.603	1040.34	-4.55927	0.873405	0	-0.322789	0	-3.34879	0	0	0	0	-0.000509597	0	-0.000115832	0	0	0
0.141667	-186.013	1230.04	2.54815	0.856971	0	-0.322603	0	-4.9741	0	0	0	0	-0.000509597	0	-0.000115832	0	0	0
0.15	-210.772	1362.45	1.57138	0.838699	0	-0.323015	0	-5.99982	0	0	0	0	-0.000509597	0	-0.000115832	0	0	0
0.158333	-229.645	1478.59	-5.77799	0.819314	0	-0.323056	0	-6.16999	0	0	0	0	-0.000509597	0	-0.000115832	0	0	0
0.166667	-224.084	1590.38	-13.8539	0.797067	0	-0.321752	0	-5.44644	0	0	0	0	-0.000509597	0	-0.000115832	0	0	0
0.175	-191.03	1684.15	-20.3541	0.771767	0	-0.319656	0	-3.97394	0	0	0	0	-0.000509597	0	-0.000115832	0	0	0
0.183333	-139.491	1743.76	-26.7561	0.745278	0	-0.317674	0	-2.01693	0	0	0	0	-0.000509597	0	-0.000115832	0	0	0
0.191667	-83.2895	1763.07	-33.6546	0.719485	0	-0.31588	-0	0.098729	-0	0	0	0	-0.000509597	0	-0.000115832	0	0	0
0.2	-29.89	1743.06	-39.0654	0.694698	0	-0.313884	-0	2.03851	-0	0	0	0	-0.000509597	0	-0.000115832	0	0	0
0.208333	18.6744	1685.17	-40.9291	0.669911	0	-0.311688	-0	3.51168	-0	0	0	0	-0.000509597	0	-0.000115832	0	0	0
0.216667	63.7111	1591.18	-38.9109	0.644063	0	-0.309735	-0	4.31721	-0	0	0	0	-0.000509597	0	-0.000115832	0	0	0
0.225	107.013	1467.97	-33.3957	0.617015	0	-0.308459	-0	4.37388	-0	0	0	0	-0.000509597	0	-0.000115832	0	0	0
0.233333	145.709	1324.67	-24.2204	0.589723	0	-0.307814	-0	3.73225	-0	0	0	0	-0.000509597	0	-0.000115832	0	0	0
0.241667	176.979	1166.19	-11.4658	0.562848	0	-0.307324	-0	2.56663	-0	0	0	0	-0.000509597	0	-0.000115832	0	0	0
0.25	198.881	993.977	2.83442	0.536378	0	-0.306681	-0	1.14079	-0	0	0	0	-0.000509597	0	-0.000115832	0	0	0
0.258333	207.249	811.289	14.9398	0.510612	0	-0.305881	0	-0.255456	0	0	0	0	-0.000509597	0	-0.000115832	0	0	0
0.266667	197.467	625.539	21.8273	0.486423	0	-0.304795	0	-1.38248	0	0	0	0	-0.000509597	0	-0.000115832	0	0	0
0.275	170.862	450.052	23.051	0.46423	0	-0.302743	0	-2.10878	0	0	0	0	-0.000509597	0	-0.000115832	0	0	0
0.283333	135.871	300.802	20.3488	0.443525	0	-0.298283	0	-2.42592	0	0	0	0	-0.000509597	0	-0.000115832	0	0	0
0.291667	99.8254	186.053	15.9756	0.423718	0	-0.2901	0	-2.4204	0	0	0	0	-0.000509597	0	-0.000115832	0	0	0
0.3	66.1919	105.01	11.5288	0.407482	0	-0.277555	0	-2.22271	0	0	0	0	-0.000509597	0	-0.000115832	0	0	0
0.308333	37.9134	53.0603	7.86944	0.409999	0	-0.258491	0	-1.95779	0	0	0	0	-0.000509597	0	-0.000115832	0	0	0
0.316667	18.4619	24.3772	5.41911	0.472828	0	-0.220055	0	-1.7114	0	0	0	0	-0.000509597	0	-0.000115832	0	0	0
0.325	8.5965	12.0016	4.17356	0.625748	0	-0.127802	0	-1.51707	0	0	0	0	-0.000509597	0	-0.000115832	0	0	0
0.333333	0	0	0	-0.000509597	0	-0.000115832	0	0	0	0	0	0	-0.000509597	0	-0.000115832	0	0	0
0.341667	0	0	0	-0.000509597	0	-0.000115832	0	0	0	0	0	0	-0.000509597	0	-0.000115832	0	0	0
0.35	0	0	0	-0.000509597	0	-0.000115832	0	0	0	0	0	0	-0.000509597	0	-0.000115832	0	0	0
0.358333	0	0	0	-0.000509597	0	-0.000115832	0	0	0	0	0	0	-0.000509597	0	-0.000115832	0	0	0
0.366667	0	0	0	-0.000509597	0	-0.000115832	0	0	0	0	0	0	-0.000509597	0	-0.000115832	0	0	0
0.375	0	0	0	-0.000509597	0	-0.000115832	0	0	0	0	0	0	-0.000509597	0	-0.000115832	0	0	0
0.383333	0	0	0	-0.000509597	0	-0.000115832	0	0	0	0	0	0	-0.000509597	0	-0.000115832	0	0	0
0.391667	0	0	0	-0.000509597	0	-0.000115832	0	0	0	0	0	0	-0.000509597	0	-0.000115832	0	0	0
0.4	0	0	0	-0.000509597	0	-0.000115832	0	0	0	0	0	0	-0.000509597	0	-0.000115832	0	0	0
